<svg xmlns="http://www.w3.org/2000/svg" viewBox="0 0 64 64" width="64" height="64">
  <!-- Rooster on a globe — after the rebus of Bishop John Alcock (c. 1430–1500) -->
  <circle cx="32" cy="52" r="10" fill="none" stroke="#b8860b" stroke-width="2.5"/>
  <path d="M25 49 Q32 46 39 49 M25 55 Q32 58 39 55 M32 42 L32 62" fill="none" stroke="#b8860b" stroke-width="1.2" opacity="0.7"/>
  <g fill="#8f1d1d">
    <!-- body -->
    <path d="M22 30 Q20 22 27 18 Q34 14 40 19 Q45 23 44 30 Q43 36 37 39 L30 41 Q23 38 22 30 Z"/>
    <!-- tail -->
    <path d="M22 30 Q10 26 8 16 Q15 20 19 19 Q12 14 12 8 Q19 13 23 13 Q18 8 20 3 Q26 9 28 16 Q24 22 22 30 Z"/>
    <!-- neck & head -->
    <path d="M39 20 Q41 12 46 9 Q47 12 46 14 Q50 12 53 13 Q51 16 48 17 Q52 18 53 21 Q49 22 46 20 Q43 24 40 25 Z"/>
    <!-- beak -->
    <path d="M52 15 L58 16 L52 18 Z" fill="#b8860b"/>
    <!-- comb -->
    <path d="M44 9 Q44 5 47 4 Q47 7 49 6 Q49 9 47 10 Z"/>
    <!-- legs -->
    <path d="M30 40 L29 45 M35 39 L35 45" stroke="#8f1d1d" stroke-width="2" fill="none"/>
  </g>
  <circle cx="47.5" cy="14.5" r="1" fill="#f7f2e9"/>
</svg>
